<?xml version="1.0" standalone="no"?>
<!DOCTYPE svg PUBLIC "-//W3C//DTD SVG 20010904//EN"
 "http://www.w3.org/TR/2001/REC-SVG-20010904/DTD/svg10.dtd">
<svg version="1.0" xmlns="http://www.w3.org/2000/svg"
 width="1024.000000pt" height="1024.000000pt" viewBox="0 0 1024.000000 1024.000000"
 preserveAspectRatio="xMidYMid meet">
<metadata>
Created by potrace 1.14, written by Peter Selinger 2001-2017
</metadata>
<g transform="translate(0.000000,1024.000000) scale(0.100000,-0.100000)"
fill="#000000" stroke="none">
<path d="M6428 9500 c-90 -26 -133 -84 -173 -235 -14 -55 -35 -129 -46 -165
-20 -69 -108 -384 -114 -410 -2 -8 -37 -136 -78 -285 -207 -741 -198 -701
-166 -774 33 -75 97 -120 176 -126 106 -7 187 55 222 169 12 37 23 78 25 90 3
11 19 71 36 131 17 61 44 157 60 215 15 58 56 204 90 325 78 279 161 576 165
595 2 8 15 56 30 105 37 124 42 184 21 239 -18 47 -70 100 -115 117 -35 14
-100 18 -133 9z"/>
<path d="M3166 8835 c-74 -26 -122 -75 -146 -152 -21 -69 -8 -117 72 -253 11
-19 148 -258 305 -530 157 -272 297 -510 312 -529 97 -123 299 -98 363 46 20
45 26 113 13 154 -4 13 -118 215 -253 449 -135 234 -253 439 -262 455 -80 143
-166 284 -183 303 -52 56 -150 81 -221 57z"/>
<path d="M9780 7646 c-36 -13 -204 -85 -375 -161 -491 -218 -1003 -445 -1085
-480 -41 -18 -100 -44 -130 -58 -30 -13 -89 -39 -130 -57 -41 -18 -102 -45
-135 -60 -33 -15 -150 -67 -260 -115 -479 -211 -618 -275 -648 -298 -116 -88
-122 -284 -12 -386 24 -22 60 -47 81 -56 42 -17 125 -21 169 -7 28 9 410 175
520 227 28 12 79 35 115 50 36 15 70 31 75 35 6 4 21 11 35 15 13 4 56 22 95
40 38 18 104 47 145 65 41 18 98 43 125 55 28 13 93 42 145 65 52 23 114 50
137 61 23 10 44 19 46 19 3 0 43 18 89 39 45 22 178 81 293 132 116 50 253
111 305 134 52 23 215 95 362 160 306 134 341 159 373 261 65 208 -129 393
-335 320z"/>
<path d="M5097 6874 c-1 -1 -31 -4 -67 -7 -326 -29 -675 -198 -905 -437 -79
-82 -74 -76 -126 -145 -143 -190 -237 -409 -279 -646 -27 -154 -23 -398 9
-546 46 -218 131 -409 265 -593 60 -83 241 -259 331 -322 390 -273 874 -345
1324 -198 98 32 293 123 312 146 6 8 16 14 21 14 20 0 167 118 249 199 201
201 340 452 405 734 17 70 32 226 32 317 -1 311 -97 613 -274 862 -67 94 -220
252 -309 319 -208 158 -464 261 -730 295 -45 6 -253 12 -258 8z"/>
<path d="M292 6278 c-31 -7 -57 -23 -92 -56 -70 -68 -89 -155 -51 -237 45 -99
101 -128 291 -150 25 -3 52 -8 60 -10 8 -2 107 -18 220 -35 113 -16 250 -37
305 -45 55 -8 116 -18 135 -20 19 -3 46 -7 60 -10 14 -2 90 -13 170 -25 80
-12 152 -23 160 -25 8 -2 38 -7 66 -10 28 -3 61 -8 75 -10 13 -3 35 -7 49 -9
25 -5 55 -10 145 -22 28 -3 59 -8 70 -10 10 -2 37 -6 60 -9 22 -3 47 -8 55
-10 8 -2 40 -7 70 -10 30 -3 67 -8 82 -11 15 -3 39 -7 55 -9 15 -2 75 -11 133
-20 58 -9 121 -18 140 -21 19 -2 60 -9 90 -14 30 -5 71 -12 90 -14 19 -3 49
-7 65 -10 53 -9 259 -38 285 -41 85 -8 188 66 214 154 40 136 -51 267 -199
285 -22 2 -69 9 -105 15 -36 5 -85 13 -110 16 -25 3 -67 10 -95 15 -27 5 -68
12 -90 14 -44 5 -90 12 -175 26 -30 5 -75 12 -100 15 -53 7 -212 31 -290 45
-30 5 -75 12 -100 15 -25 3 -72 10 -105 15 -33 5 -78 12 -100 15 -22 4 -52 8
-68 11 -15 2 -89 13 -165 24 -75 12 -162 25 -192 30 -30 5 -75 12 -100 15 -25
3 -58 8 -75 11 -16 3 -46 7 -65 10 -19 2 -91 13 -160 24 -178 27 -331 51 -360
55 -14 2 -54 8 -90 14 -184 29 -204 30 -258 19z"/>
<path d="M7475 4514 c-6 -2 -29 -8 -52 -14 -113 -29 -174 -167 -124 -283 32
-75 4 -60 736 -402 39 -18 140 -65 225 -105 85 -39 187 -87 225 -105 39 -18
122 -58 185 -88 165 -78 255 -116 281 -120 73 -12 172 39 208 106 30 56 35 98
17 160 -25 84 -59 110 -289 217 -111 52 -263 123 -337 158 -155 73 -175 83
-480 225 -124 58 -279 130 -345 162 -66 31 -131 62 -145 67 -31 13 -92 25
-105 22z"/>
<path d="M3850 3567 c-59 -19 -115 -92 -284 -372 -89 -148 -240 -398 -336
-555 -95 -157 -178 -301 -185 -320 -33 -94 16 -209 109 -257 52 -27 135 -28
188 -4 25 12 55 32 66 44 18 20 672 1088 711 1162 10 19 16 56 16 100 0 61 -4
76 -30 115 -54 81 -159 117 -255 87z"/>
<path d="M6099 3490 c-74 -13 -140 -70 -168 -146 -25 -68 -18 -105 45 -267 31
-78 77 -194 101 -257 25 -63 51 -128 58 -145 7 -16 58 -145 113 -285 55 -140
153 -388 217 -550 64 -162 146 -369 182 -460 36 -91 126 -318 200 -505 74
-187 157 -397 185 -467 43 -111 56 -133 95 -167 92 -82 219 -76 303 13 42 44
58 85 59 151 1 39 -15 90 -80 255 -45 113 -142 358 -216 545 -74 187 -155 392
-180 455 -25 63 -92 234 -150 380 -58 146 -161 407 -230 580 -337 852 -315
806 -393 846 -45 23 -96 31 -141 24z"/>
</g>
</svg>
