<?xml version="1.0" standalone="no"?>
<!DOCTYPE svg PUBLIC "-//W3C//DTD SVG 20010904//EN"
 "http://www.w3.org/TR/2001/REC-SVG-20010904/DTD/svg10.dtd">
<svg version="1.0" xmlns="http://www.w3.org/2000/svg"
 width="1024.000000pt" height="1024.000000pt" viewBox="0 0 1024.000000 1024.000000"
 preserveAspectRatio="xMidYMid meet">
<metadata>
Created by potrace 1.14, written by Peter Selinger 2001-2017
</metadata>
<g transform="translate(0.000000,1024.000000) scale(0.100000,-0.100000)"
fill="#000000" stroke="none">
<path d="M5644 9827 c-44 -45 -432 -422 -651 -633 -39 -38 -178 -172 -309
-299 -130 -126 -273 -265 -318 -308 -45 -44 -184 -179 -310 -300 -125 -122
-260 -253 -300 -291 -39 -38 -183 -177 -319 -310 -137 -132 -277 -268 -311
-301 -35 -33 -186 -179 -336 -325 -150 -146 -297 -287 -325 -315 -29 -27 -168
-162 -310 -300 -142 -137 -279 -270 -305 -295 -108 -105 -596 -577 -747 -724
-90 -88 -162 -161 -160 -162 5 -6 139 -23 232 -29 39 -3 77 -7 85 -10 8 -2 42
-7 75 -10 90 -8 156 -15 195 -20 40 -5 141 -16 185 -20 17 -2 55 -6 85 -9 30
-3 78 -8 105 -11 28 -3 84 -9 125 -15 41 -5 109 -12 150 -15 41 -3 82 -8 90
-10 8 -2 51 -7 95 -10 44 -4 82 -8 85 -10 3 -2 40 -6 82 -10 43 -3 88 -8 100
-10 24 -4 92 -11 193 -20 33 -3 74 -7 90 -10 76 -10 115 -14 178 -20 37 -4 76
-8 86 -10 17 -3 173 -17 199 -18 6 0 12 -4 12 -9 0 -5 -39 -67 -87 -136 -230
-336 -500 -730 -515 -752 -10 -14 -47 -68 -83 -120 -36 -52 -95 -138 -131
-190 -76 -111 -161 -234 -415 -605 -248 -360 -300 -435 -507 -738 -97 -142
-197 -287 -222 -322 -25 -35 -74 -107 -110 -160 -36 -52 -139 -203 -230 -335
-91 -131 -195 -283 -232 -337 -62 -92 -99 -145 -273 -398 -201 -293 -198 -281
-35 -125 26 25 74 69 106 99 33 30 100 93 149 140 50 47 160 151 244 231 181
170 177 166 361 340 79 74 161 152 184 173 23 22 104 99 181 172 77 73 156
147 175 165 19 18 102 96 184 174 82 77 161 152 176 166 15 14 91 86 170 160
164 155 149 140 346 326 82 78 167 158 189 179 61 57 277 260 332 313 125 118
341 323 373 352 19 18 100 94 179 169 79 75 156 147 171 161 15 14 92 86 171
162 79 75 162 153 184 173 22 21 105 99 185 175 80 75 163 154 185 175 81 76
310 291 345 325 151 144 324 306 331 308 5 2 9 8 9 12 0 5 -28 7 -62 5 -35 -2
-121 -6 -193 -10 -189 -9 -388 -19 -580 -30 -38 -2 -126 -7 -195 -10 -69 -3
-163 -8 -210 -10 -47 -3 -130 -7 -185 -10 -142 -7 -286 -14 -390 -20 -49 -3
-137 -7 -195 -10 -214 -11 -288 -14 -393 -20 l-108 -5 27 47 c15 27 40 67 56
91 15 24 28 45 28 47 0 3 19 35 42 72 22 38 49 82 58 98 15 27 177 297 200
335 19 31 231 386 382 640 87 146 162 272 167 280 53 88 209 349 263 440 38
63 72 122 77 130 5 8 97 161 204 340 107 179 248 414 313 523 66 109 127 212
138 230 46 80 151 255 171 287 12 19 116 193 230 385 114 193 231 388 260 435
61 101 118 200 113 199 -2 0 -26 -24 -54 -52z"/>
<path d="M7470 7575 c-320 -43 -635 -166 -842 -329 -14 -12 -41 -32 -59 -46
-129 -96 -326 -317 -444 -497 l-43 -65 56 -81 c31 -45 59 -84 62 -87 3 -3 14
-18 24 -35 10 -16 39 -58 63 -93 l45 -63 51 86 c71 120 191 276 284 370 293
298 627 442 1043 450 328 6 570 -68 753 -231 101 -91 191 -241 212 -356 3 -13
9 -44 13 -70 11 -58 7 -221 -7 -308 -39 -235 -163 -440 -388 -642 -123 -110
-322 -213 -474 -243 -94 -20 -295 -47 -429 -60 -36 -4 -76 -8 -90 -10 -14 -2
-65 -6 -115 -10 -110 -8 -168 -14 -173 -20 -5 -5 -6 -385 -1 -389 2 -2 198 -6
434 -9 237 -3 441 -8 455 -11 14 -3 50 -9 80 -15 129 -22 221 -54 358 -124 90
-46 249 -181 327 -277 114 -140 196 -340 224 -545 17 -125 11 -329 -13 -465
-61 -336 -287 -636 -587 -779 -177 -84 -319 -114 -554 -115 -361 -1 -544 38
-827 180 -342 171 -580 357 -791 616 -39 48 -72 87 -73 85 -7 -9 -67 -302 -70
-343 -2 -44 2 -60 28 -100 96 -153 343 -385 560 -526 226 -146 598 -287 853
-324 28 -3 59 -9 70 -11 38 -10 410 -12 480 -3 91 11 146 20 167 26 10 3 30 7
45 10 62 10 213 59 297 95 112 49 229 117 331 194 91 68 257 232 319 314 22
31 43 58 46 61 21 19 107 164 148 251 128 266 169 544 126 844 -22 158 -102
354 -212 519 -179 269 -428 459 -765 586 -107 40 -187 65 -199 62 -28 -7 6 15
90 57 265 134 477 313 618 523 89 134 200 380 217 484 3 16 8 40 11 54 15 64
18 94 22 220 2 74 -1 158 -7 185 -5 28 -11 59 -13 70 -17 91 -110 302 -154
352 -10 10 -30 36 -46 57 -71 94 -228 231 -361 313 -111 69 -307 152 -420 178
-201 46 -199 45 -445 50 -140 2 -248 -1 -310 -10z"/>
</g>
</svg>
